<?xml version="1.0" standalone="no"?>
<!DOCTYPE svg PUBLIC "-//W3C//DTD SVG 20010904//EN"
 "http://www.w3.org/TR/2001/REC-SVG-20010904/DTD/svg10.dtd">
<svg version="1.0" xmlns="http://www.w3.org/2000/svg"
 width="443.000000pt" height="172.000000pt" viewBox="0 0 443.000000 172.000000"
 preserveAspectRatio="xMidYMid meet">

<g transform="translate(0.000000,172.000000) scale(0.100000,-0.100000)"
fill="#000000" stroke="none">
<path d="M190 1315 l-175 -175 158 -158 157 -157 -155 -155 -155 -155 172
-172 173 -173 150 150 c83 83 155 150 160 150 5 0 78 -69 162 -152 l153 -153
175 175 175 175 -157 157 -158 158 155 155 155 155 -173 172 -172 173 -155
-155 -155 -155 -158 158 -157 157 -175 -175z"/>
<path d="M1665 1318 c-3 -7 -4 -97 -3 -198 l3 -185 120 0 c113 0 120 1 120 20
0 19 -8 20 -102 23 l-103 3 -2 171 c-2 126 -6 172 -15 176 -7 2 -15 -2 -18
-10z"/>
<path d="M2020 1183 c-91 -214 -96 -231 -83 -244 16 -16 32 -3 50 42 l15 39
92 0 92 0 22 -46 c22 -44 44 -54 50 -22 5 25 -145 373 -161 376 -10 2 -33 -41
-77 -145z m115 -28 c15 -38 29 -76 32 -82 4 -10 -14 -13 -72 -13 -42 0 -75 4
-73 8 2 4 18 45 37 91 19 45 37 79 41 74 4 -4 19 -39 35 -78z"/>
<path d="M2316 1315 c-9 -26 -7 -358 3 -374 5 -8 16 -11 25 -8 13 5 16 30 18
154 l3 148 113 -150 c67 -89 120 -150 130 -150 15 0 17 19 17 195 0 188 -1
195 -20 195 -19 0 -20 -8 -25 -150 l-5 -150 -113 150 c-62 83 -119 151 -126
153 -8 2 -16 -4 -20 -13z"/>
<path d="M2732 1318 c-17 -17 -17 -359 0 -376 15 -15 132 -14 176 1 42 16 91
63 108 104 18 42 18 124 0 166 -17 41 -66 88 -108 104 -44 15 -161 16 -176 1z
m186 -55 c51 -38 67 -71 67 -133 0 -95 -52 -148 -153 -157 l-62 -6 0 163 0
163 62 -6 c37 -3 71 -13 86 -24z"/>
<path d="M3115 1318 c-3 -7 -4 -97 -3 -198 3 -157 5 -185 18 -185 13 0 15 28
15 194 0 147 -3 195 -12 198 -7 3 -15 -1 -18 -9z"/>
<path d="M3254 1317 c-2 -7 -3 -96 -2 -197 3 -157 5 -185 18 -185 13 0 15 24
18 148 1 84 7 147 12 145 5 -2 59 -70 120 -151 61 -82 117 -146 123 -144 9 3
12 57 12 198 0 166 -2 194 -15 194 -13 0 -15 -24 -18 -148 -1 -84 -7 -147 -12
-145 -5 2 -59 69 -120 151 -60 81 -115 147 -120 147 -6 0 -13 -6 -16 -13z"/>
<path d="M3728 1301 c-57 -36 -88 -96 -88 -171 0 -153 148 -247 281 -180 l40
21 -3 77 -3 77 -68 3 c-62 3 -68 1 -65 -15 2 -14 14 -19 51 -21 l47 -3 0 -43
c0 -57 -18 -71 -89 -71 -40 0 -64 6 -83 20 -35 25 -68 91 -68 135 0 43 33 110
67 134 41 30 114 33 157 7 20 -13 40 -20 46 -16 41 25 -41 75 -123 75 -41 0
-63 -6 -99 -29z"/>
<path d="M1664 797 c-2 -7 -3 -96 -2 -197 3 -157 5 -185 18 -185 12 0 16 15
18 68 l3 67 50 0 c96 0 149 40 156 117 5 60 -22 108 -72 129 -44 18 -164 19
-171 1z m150 -37 c33 -12 59 -63 51 -100 -10 -46 -39 -65 -103 -65 l-57 0 -3
74 c-2 41 -1 80 2 88 6 15 72 18 110 3z"/>
<path d="M1968 804 c-12 -12 -10 -382 2 -389 25 -15 40 18 40 86 l0 69 33 0
c39 0 48 -9 102 -97 36 -60 56 -75 70 -53 4 6 -12 42 -35 80 l-42 70 31 35
c45 51 44 111 -2 162 -32 35 -37 36 -113 41 -43 2 -82 1 -86 -4z m169 -68 c30
-35 29 -71 -2 -101 -19 -20 -34 -25 -75 -25 l-50 0 0 81 0 82 52 -5 c40 -4 57
-11 75 -32z"/>
<path d="M2353 789 c-106 -52 -136 -208 -60 -312 44 -59 163 -86 240 -53 63
26 117 111 117 186 0 75 -54 160 -117 186 -48 21 -131 17 -180 -7z m167 -37
c53 -26 80 -74 80 -142 0 -96 -62 -160 -155 -160 -100 0 -176 109 -145 207 31
97 131 140 220 95z"/>
<path d="M3250 435 c0 -170 4 -265 10 -265 6 0 10 95 10 265 0 170 -4 265 -10
265 -6 0 -10 -95 -10 -265z"/>
<path d="M3372 645 c1 -58 1 -59 7 -15 l6 44 37 -44 38 -45 -2 60 c-1 53 -2
55 -5 15 l-4 -45 -39 45 -39 45 1 -60z"/>
<path d="M3500 645 l0 -55 43 2 42 1 -37 4 c-29 3 -38 9 -38 23 0 13 9 20 28
23 l27 4 -27 2 c-21 1 -28 6 -28 20 0 15 8 21 38 24 l37 4 -42 1 -43 2 0 -55z"/>
<path d="M3615 691 c15 -6 22 -20 26 -57 l6 -49 1 52 c2 40 6 53 20 56 9 3 -3
5 -28 5 -31 0 -39 -2 -25 -7z"/>
<path d="M3701 694 c-1 -6 7 -33 16 -60 l16 -49 15 45 c13 37 16 41 23 25 5
-12 8 -14 8 -5 0 8 -4 24 -9 35 -9 22 -9 21 -28 -40 l-9 -30 -16 45 c-8 25
-16 40 -16 34z"/>
<path d="M3809 661 c-6 -22 -16 -38 -20 -35 -11 6 -12 -20 -2 -30 4 -4 15 16
25 45 10 29 16 54 14 57 -3 2 -10 -14 -17 -37z"/>
<path d="M3868 689 c-10 -5 -18 -18 -18 -27 0 -13 3 -12 16 6 19 28 49 28 68
0 13 -19 14 -25 2 -43 -19 -29 -51 -31 -70 -3 -13 18 -16 19 -16 6 0 -18 28
-38 54 -38 20 0 56 35 56 55 0 21 -36 55 -57 55 -10 0 -26 -5 -35 -11z"/>
<path d="M3991 643 c1 -32 4 -46 6 -30 5 34 26 35 42 1 6 -15 14 -24 17 -21 3
3 0 15 -6 27 -9 16 -9 25 1 36 16 19 -5 44 -37 44 -23 0 -24 -3 -23 -57z m48
34 c13 -16 5 -27 -21 -27 -11 0 -18 7 -18 20 0 23 22 27 39 7z"/>
<path d="M4093 645 c0 -33 2 -48 4 -32 2 15 8 27 13 27 5 0 18 -12 29 -27 11
-16 21 -23 21 -17 0 6 -7 17 -15 24 -8 7 -15 18 -15 25 0 7 7 18 15 25 8 7 15
17 15 23 0 6 -13 -2 -29 -17 l-29 -28 -5 28 c-2 16 -4 2 -4 -31z"/>
<path d="M3386 484 c-30 -30 -10 -94 29 -94 29 0 45 13 45 36 0 18 -5 24 -22
24 -21 0 -21 -1 -3 -13 20 -16 13 -37 -14 -37 -23 0 -41 20 -41 46 0 31 24 47
57 40 21 -5 24 -4 13 4 -22 14 -46 12 -64 -6z"/>
<path d="M3501 451 c-22 -52 -28 -79 -10 -48 6 10 22 17 39 17 22 0 30 -5 31
-17 0 -10 3 -13 5 -7 4 9 -32 104 -40 104 -2 0 -13 -22 -25 -49z m34 -19 c-22
-5 -29 3 -21 25 7 17 8 17 22 -2 13 -18 13 -20 -1 -23z"/>
<path d="M3601 443 c2 -54 2 -55 8 -18 l6 40 18 -33 c11 -20 22 -30 29 -25 9
5 9 8 0 11 -7 2 -22 21 -32 43 -11 21 -23 39 -25 39 -3 0 -4 -26 -4 -57z"/>
<path d="M3687 463 c-12 -27 -13 -33 -3 -19 14 17 15 15 19 -20 3 -30 4 -26 5
19 1 31 1 57 -1 57 -2 0 -11 -17 -20 -37z"/>
<path d="M3750 445 l0 -55 43 1 42 2 -35 6 c-45 8 -54 38 -13 44 l28 4 -28 2
c-42 2 -32 34 13 42 l35 6 -42 2 -43 1 0 -55z"/>
<path d="M3371 243 c1 -32 4 -48 6 -36 3 15 13 23 31 25 49 6 36 68 -14 68
-23 0 -24 -3 -23 -57z m54 22 c0 -13 -8 -21 -22 -23 -17 -3 -23 2 -23 16 0 10
3 22 7 26 13 13 38 1 38 -19z"/>
<path d="M3472 248 l-2 -58 38 1 c36 1 36 2 7 8 -27 6 -31 10 -36 56 l-6 50
-1 -57z"/>
<path d="M3581 256 c-22 -50 -28 -85 -10 -53 5 9 21 17 34 17 13 0 29 -8 35
-17 17 -28 2 24 -20 66 l-17 35 -22 -48z m39 -6 c9 -18 8 -20 -15 -20 -23 0
-24 2 -15 20 6 11 13 20 15 20 2 0 9 -9 15 -20z"/>
<path d="M3669 269 c12 -20 21 -47 22 -60 1 -23 1 -23 9 3 4 15 15 37 24 50 9
12 16 27 16 33 -1 5 -8 -2 -16 -17 -8 -16 -18 -28 -21 -28 -4 0 -18 12 -31 28
l-24 27 21 -36z"/>
<path d="M3777 282 c-36 -40 -3 -101 48 -88 34 9 37 57 3 55 -18 -1 -19 -2 -5
-6 22 -6 19 -36 -4 -41 -19 -3 -49 23 -49 43 0 25 31 47 59 40 20 -4 22 -3 11
5 -23 15 -45 12 -63 -8z"/>
<path d="M3897 282 c-33 -36 -8 -92 40 -92 25 0 53 30 53 57 0 46 -62 69 -93
35z m64 -2 c37 -20 15 -80 -30 -80 -14 0 -41 29 -41 45 0 16 27 45 41 45 6 0
19 -5 30 -10z"/>
<path d="M4032 260 c-2 -48 10 -70 39 -70 31 0 49 29 48 73 l-2 42 -6 -43 c-8
-49 -21 -65 -47 -60 -15 2 -20 15 -25 53 l-6 50 -1 -45z"/>
<path d="M4162 244 c1 -56 1 -57 7 -16 l6 43 33 -42 32 -43 -2 60 c-1 56 -1
57 -7 16 l-6 -43 -32 42 -33 43 2 -60z"/>
<path d="M4290 245 c0 -51 2 -55 23 -55 28 0 57 29 57 57 0 25 -30 53 -58 53
-20 0 -22 -5 -22 -55z m51 35 c37 -20 15 -80 -30 -80 -6 0 -11 20 -11 45 0 46
7 53 41 35z"/>
</g>
</svg>
